<?xml version="1.0" encoding="utf-8"?>
<!-- Generator: Adobe Illustrator 16.0.3, SVG Export Plug-In . SVG Version: 6.00 Build 0)  -->
<!DOCTYPE svg PUBLIC "-//W3C//DTD SVG 1.1//EN" "http://www.w3.org/Graphics/SVG/1.1/DTD/svg11.dtd">
<svg version="1.1" id="Logo_icon" xmlns="http://www.w3.org/2000/svg" xmlns:xlink="http://www.w3.org/1999/xlink" x="0px" y="0px"
	 width="1064.821px" height="1100.728px" viewBox="0 0 1064.821 1100.728" enable-background="new 0 0 1064.821 1100.728"
	 xml:space="preserve">
<linearGradient id="_x34__1_" gradientUnits="userSpaceOnUse" x1="588.2051" y1="310.9097" x2="481.1621" y2="15.2067">
	<stop  offset="0" style="stop-color:#4519BF"/>
	<stop  offset="1" style="stop-color:#E93FFC"/>
</linearGradient>
<path id="_x34_" fill-rule="evenodd" clip-rule="evenodd" fill="url(#_x34__1_)" d="M464.475,28.016
	c-20.275,20.272-40.542,40.541-60.817,60.814c-37.354,37.364-37.354,98.502,0,135.863c20.275,20.275,40.542,40.542,60.817,60.817
	c37.361,37.354,98.499,37.354,135.862,0c28.48-15.932,47.786-36.702,60.813-60.817c37.355-37.361,37.355-98.499,0-135.863
	c-20.275-20.273-40.54-40.542-60.813-60.814C562.974-9.338,501.835-9.338,464.475,28.016z"/>
<linearGradient id="_x33__1_" gradientUnits="userSpaceOnUse" x1="584.5488" y1="1088.0156" x2="480.257" y2="799.9128">
	<stop  offset="0" style="stop-color:#E93FFC"/>
	<stop  offset="1" style="stop-color:#4519BF"/>
</linearGradient>
<path id="_x33_" fill-rule="evenodd" clip-rule="evenodd" fill="url(#_x33__1_)" d="M600.332,1072.709
	c20.275-20.272,40.543-40.537,60.818-60.815c37.353-37.358,37.353-98.5,0-135.858c-20.275-20.278-40.543-40.543-60.818-60.815
	c-37.361-37.358-98.499-37.358-135.86,0c-28.48,15.928-47.784,36.702-60.814,60.815c-37.357,37.358-37.357,98.5,0,135.858
	c20.273,20.278,40.542,40.543,60.814,60.815C501.833,1110.067,562.971,1110.067,600.332,1072.709z"/>
<linearGradient id="_x32__1_" gradientUnits="userSpaceOnUse" x1="22.686" y1="670.6514" x2="1046.1819" y2="480.9576">
	<stop  offset="0" style="stop-color:#4519BF"/>
	<stop  offset="1" style="stop-color:#E93FFC"/>
</linearGradient>
<path id="_x32_" fill-rule="evenodd" clip-rule="evenodd" fill="url(#_x32__1_)" d="M683.986,111.75l339.877,339.892
	c0.443,0.427,0.897,0.873,1.314,1.325c45.405,46.24,51.796,117.012,19.231,170.179c-15.761,25.732-37.088,46.97-61.28,64.825
	c-125.634,92.774-278.368,132.151-426.989,118.04c-10.257-0.969-17.258-2.028-28.071-1.676c-34.417,1.113-68.524,14.6-94.649,40.729
	l0,0c-51.091,51.089-54.189,132.719-9.3,187.521l-43.9-44.067c-121.058-124.99-126.101-306.102-40.325-433.921l124.498,124.503
	c37.349,37.35,98.5,37.363,135.863,0l32.395-32.4l29.218-29.221l12.895-12.892c18.172-18.166,34.333-37.823,47.725-58.555
	c0.281-0.438,0.568-0.886,0.855-1.325c0.584-1.491,1.444-2.874,2.353-4.456c76.61-133.762,55.794-315.517-40.282-426.914
	C684.947,112.796,684.482,112.274,683.986,111.75z"/>
<linearGradient id="_x31__1_" gradientUnits="userSpaceOnUse" x1="16.9653" y1="619.8701" x2="1039.6414" y2="430.3283">
	<stop  offset="0" style="stop-color:#E93FFC"/>
	<stop  offset="1" style="stop-color:#4519BF"/>
</linearGradient>
<path id="_x31_" fill-rule="evenodd" clip-rule="evenodd" fill="url(#_x31__1_)" d="M380.219,988.519L40.952,649.239
	c-0.442-0.428-0.895-0.868-1.313-1.322c-45.404-46.24-51.798-117.014-19.231-170.18c15.76-25.733,37.086-46.97,61.278-64.822
	c125.639-92.778,278.371-132.154,426.991-118.042c10.256,0.97,17.26,2.024,28.07,1.676c34.416-1.114,68.523-14.603,94.649-40.73l0,0
	c51.093-51.091,54.189-132.723,9.302-187.523l43.289,43.454l1.179,1.26c105.717,114.6,122.188,281.904,49.396,412.908
	c-1.453,2.619-2.946,5.244-4.483,7.838l-0.579,0.975c-1.952,3.247-3.894,6.439-5.944,9.646l-0.212,0.331L600.425,421.783
	c-37.363-37.356-98.501-37.356-135.861,0l-32.396,32.394l-29.222,29.226l-13.192,13.187
	c-134.911,134.924-137.285,349.938-10.92,490.386L380.219,988.519z"/>
</svg>
