<svg width="32" height="32" viewBox="0 0 32 32" fill="currentColor" xmlns="http://www.w3.org/2000/svg">
<path d="M25.6426 1.63556L18.9656 11.5556C18.5039 12.2311 19.3918 13.0489 20.0311 12.48L26.6016 6.75556C26.7791 6.61333 27.0277 6.72 27.0277 6.96889V24.8533C27.0277 25.1022 26.7081 25.2089 26.566 25.0311L6.67703 1.20889C6.03774 0.426667 5.11432 0 4.08435 0H3.37403C1.52719 0 0 1.52889 0 3.41333V28.5867C0 30.4711 1.52719 32 3.40955 32C4.58158 32 5.68257 31.3956 6.32186 30.3644L12.9989 20.4444C13.4606 19.7689 12.5727 18.9511 11.9334 19.52L5.36293 25.2089C5.18535 25.3511 4.93674 25.2444 4.93674 24.9956V7.14667C4.93674 6.89778 5.25638 6.79111 5.39845 6.96889L25.2875 30.7911C25.9267 31.5733 26.8857 32 27.8801 32H28.5905C30.4728 32 32 30.4711 32 28.5867V3.41333C32 1.52889 30.4728 0 28.5905 0C27.3829 0 26.2819 0.604444 25.6426 1.63556Z" fill="currentColor"/>
</svg>
